# xmcd
#
# Track frame offsets:
#	150
#	20862
#	39825
#	60325
#	73500
#	90212
#	105012
#	120787
#	142262
#	160812
#	174850
#	191725
#
# Disc length: 2788 seconds
#
# Revision: 0
# Processed by: cddbd v1.5.2PL0 Copyright (c) Steve Scherf et al.
# Submitted via: EasyCDDAExtractor 11.6.0.1
#
DISCID=890ae20c
DTITLE=Various Artist - [1994] 古早恋歌 [闽南语]
DYEAR=1994
DGENRE=
TTITLE0=洪一峰 - 思慕的人
TTITLE1=文夏 - 黄昏的故乡
TTITLE2=纪露霞 - 黄昏岭
TTITLE3=颜华 - 港町十三番地
TTITLE4=钟瑛 - 安平追想曲
TTITLE5=林秀珠 - 三声无奈
TTITLE6=文夏 - 飘浪之女
TTITLE7=纪露霞 - 望你早归
TTITLE8=颜华 - 长崎蝴蝶姑娘
TTITLE9=林秀珠 - 母啊喂
TTITLE10=洪一峰 - 旧情绵绵
TTITLE11=钟瑛 - 苦恋歌
EXTD=
EXTT0=
EXTT1=
EXTT2=
EXTT3=
EXTT4=
EXTT5=
EXTT6=
EXTT7=
EXTT8=
EXTT9=
EXTT10=
EXTT11=
PLAYORDER=
